<mxfile host="Electron" agent="Mozilla/5.0 (Windows NT 10.0; Win64; x64) AppleWebKit/537.36 (KHTML, like Gecko) draw.io/26.0.4 Chrome/128.0.6613.186 Electron/32.2.5 Safari/537.36" version="26.0.4">
  <diagram name="Page-1" id="sa2yyL8KIF-DNvj2UsUI">
    <mxGraphModel dx="4083" dy="-5" grid="1" gridSize="10" guides="1" tooltips="1" connect="1" arrows="1" fold="1" page="1" pageScale="1" pageWidth="1169" pageHeight="827" math="0" shadow="0">
      <root>
        <mxCell id="0" />
        <mxCell id="1" parent="0" />
        <mxCell id="CjeFpHpgHZj_Uafyih__-158" style="edgeStyle=orthogonalEdgeStyle;rounded=0;orthogonalLoop=1;jettySize=auto;html=1;exitX=1;exitY=0.75;exitDx=0;exitDy=0;entryX=0.5;entryY=1;entryDx=0;entryDy=0;" parent="1" target="CjeFpHpgHZj_Uafyih__-106" edge="1">
          <mxGeometry relative="1" as="geometry">
            <mxPoint x="-1039" y="1915" as="sourcePoint" />
          </mxGeometry>
        </mxCell>
        <mxCell id="CjeFpHpgHZj_Uafyih__-1" value="FSM" style="rounded=0;whiteSpace=wrap;html=1;labelBackgroundColor=none;" parent="1" vertex="1">
          <mxGeometry x="-2389" y="1850" width="1350" height="80" as="geometry" />
        </mxCell>
        <mxCell id="CjeFpHpgHZj_Uafyih__-2" style="edgeStyle=orthogonalEdgeStyle;rounded=0;orthogonalLoop=1;jettySize=auto;html=1;exitX=1;exitY=0.25;exitDx=0;exitDy=0;entryX=1;entryY=0.75;entryDx=0;entryDy=0;" parent="1" source="CjeFpHpgHZj_Uafyih__-4" target="CjeFpHpgHZj_Uafyih__-29" edge="1">
          <mxGeometry relative="1" as="geometry">
            <mxPoint x="-2259" y="1600" as="targetPoint" />
          </mxGeometry>
        </mxCell>
        <mxCell id="CjeFpHpgHZj_Uafyih__-3" style="edgeStyle=orthogonalEdgeStyle;rounded=0;orthogonalLoop=1;jettySize=auto;html=1;exitX=1;exitY=0.75;exitDx=0;exitDy=0;entryX=0.107;entryY=0;entryDx=0;entryDy=0;entryPerimeter=0;" parent="1" source="CjeFpHpgHZj_Uafyih__-4" target="CjeFpHpgHZj_Uafyih__-1" edge="1">
          <mxGeometry relative="1" as="geometry">
            <mxPoint x="-2229" y="1770" as="targetPoint" />
          </mxGeometry>
        </mxCell>
        <mxCell id="CjeFpHpgHZj_Uafyih__-4" value="COMTER A&lt;br&gt;+1bit&lt;br&gt;= &quot;11&quot;" style="rounded=0;whiteSpace=wrap;html=1;" parent="1" vertex="1">
          <mxGeometry x="-2499" y="1650" width="160" height="160" as="geometry" />
        </mxCell>
        <mxCell id="CjeFpHpgHZj_Uafyih__-5" value="" style="endArrow=classic;html=1;rounded=0;entryX=0;entryY=0.063;entryDx=0;entryDy=0;entryPerimeter=0;exitX=0;exitY=0.75;exitDx=0;exitDy=0;" parent="1" source="CjeFpHpgHZj_Uafyih__-1" edge="1">
          <mxGeometry width="50" height="50" relative="1" as="geometry">
            <mxPoint x="-2579" y="1700" as="sourcePoint" />
            <mxPoint x="-2499" y="1700.0800000000004" as="targetPoint" />
            <Array as="points">
              <mxPoint x="-2619" y="1910" />
              <mxPoint x="-2619" y="1700" />
            </Array>
          </mxGeometry>
        </mxCell>
        <mxCell id="CjeFpHpgHZj_Uafyih__-6" value="" style="endArrow=classic;html=1;rounded=0;entryX=0;entryY=0.063;entryDx=0;entryDy=0;entryPerimeter=0;fontStyle=1;exitX=0;exitY=0.5;exitDx=0;exitDy=0;" parent="1" source="CjeFpHpgHZj_Uafyih__-1" edge="1">
          <mxGeometry width="50" height="50" relative="1" as="geometry">
            <mxPoint x="-2579" y="1730" as="sourcePoint" />
            <mxPoint x="-2499" y="1730" as="targetPoint" />
            <Array as="points">
              <mxPoint x="-2599" y="1890" />
              <mxPoint x="-2599" y="1730" />
            </Array>
          </mxGeometry>
        </mxCell>
        <mxCell id="CjeFpHpgHZj_Uafyih__-7" value="" style="endArrow=classic;html=1;rounded=0;entryX=0;entryY=0.063;entryDx=0;entryDy=0;entryPerimeter=0;exitX=0;exitY=0.25;exitDx=0;exitDy=0;" parent="1" source="CjeFpHpgHZj_Uafyih__-1" edge="1">
          <mxGeometry width="50" height="50" relative="1" as="geometry">
            <mxPoint x="-2579" y="1760" as="sourcePoint" />
            <mxPoint x="-2499" y="1760" as="targetPoint" />
            <Array as="points">
              <mxPoint x="-2579" y="1870" />
              <mxPoint x="-2579" y="1760" />
            </Array>
          </mxGeometry>
        </mxCell>
        <mxCell id="CjeFpHpgHZj_Uafyih__-8" value="clk" style="text;html=1;align=center;verticalAlign=middle;resizable=0;points=[];autosize=1;strokeColor=none;fillColor=none;" parent="1" vertex="1">
          <mxGeometry x="-2509" y="1680" width="40" height="30" as="geometry" />
        </mxCell>
        <mxCell id="CjeFpHpgHZj_Uafyih__-9" value="en_A" style="text;html=1;align=center;verticalAlign=middle;resizable=0;points=[];autosize=1;strokeColor=none;fillColor=none;" parent="1" vertex="1">
          <mxGeometry x="-2509" y="1710" width="50" height="30" as="geometry" />
        </mxCell>
        <mxCell id="CjeFpHpgHZj_Uafyih__-10" value="res_A" style="text;html=1;align=center;verticalAlign=middle;resizable=0;points=[];autosize=1;strokeColor=none;fillColor=none;" parent="1" vertex="1">
          <mxGeometry x="-2509" y="1740" width="50" height="30" as="geometry" />
        </mxCell>
        <mxCell id="CjeFpHpgHZj_Uafyih__-11" value="flag_A" style="text;html=1;align=center;verticalAlign=middle;resizable=0;points=[];autosize=1;strokeColor=none;fillColor=none;" parent="1" vertex="1">
          <mxGeometry x="-2389" y="1750" width="60" height="30" as="geometry" />
        </mxCell>
        <mxCell id="CjeFpHpgHZj_Uafyih__-12" value="count_A" style="text;html=1;align=center;verticalAlign=middle;resizable=0;points=[];autosize=1;strokeColor=none;fillColor=none;" parent="1" vertex="1">
          <mxGeometry x="-2399" y="1670" width="70" height="30" as="geometry" />
        </mxCell>
        <mxCell id="CjeFpHpgHZj_Uafyih__-13" value="en_A" style="text;html=1;align=center;verticalAlign=middle;resizable=0;points=[];autosize=1;strokeColor=none;fillColor=none;" parent="1" vertex="1">
          <mxGeometry x="-2399" y="1870" width="50" height="30" as="geometry" />
        </mxCell>
        <mxCell id="CjeFpHpgHZj_Uafyih__-14" value="res_A" style="text;html=1;align=center;verticalAlign=middle;resizable=0;points=[];autosize=1;strokeColor=none;fillColor=none;" parent="1" vertex="1">
          <mxGeometry x="-2399" y="1850" width="50" height="30" as="geometry" />
        </mxCell>
        <mxCell id="CjeFpHpgHZj_Uafyih__-15" value="COMTER B&lt;br&gt;+1deg&lt;br&gt;= 360deg" style="rounded=0;whiteSpace=wrap;html=1;" parent="1" vertex="1">
          <mxGeometry x="-2139" y="1650" width="160" height="160" as="geometry" />
        </mxCell>
        <mxCell id="CjeFpHpgHZj_Uafyih__-16" value="clk" style="text;html=1;align=center;verticalAlign=middle;resizable=0;points=[];autosize=1;strokeColor=none;fillColor=none;" parent="1" vertex="1">
          <mxGeometry x="-2149" y="1680" width="40" height="30" as="geometry" />
        </mxCell>
        <mxCell id="CjeFpHpgHZj_Uafyih__-17" value="en_B" style="text;html=1;align=center;verticalAlign=middle;resizable=0;points=[];autosize=1;strokeColor=none;fillColor=none;" parent="1" vertex="1">
          <mxGeometry x="-2149" y="1710" width="50" height="30" as="geometry" />
        </mxCell>
        <mxCell id="CjeFpHpgHZj_Uafyih__-18" value="res_B" style="text;html=1;align=center;verticalAlign=middle;resizable=0;points=[];autosize=1;strokeColor=none;fillColor=none;" parent="1" vertex="1">
          <mxGeometry x="-2149" y="1740" width="50" height="30" as="geometry" />
        </mxCell>
        <mxCell id="CjeFpHpgHZj_Uafyih__-19" value="flag_B" style="text;html=1;align=center;verticalAlign=middle;resizable=0;points=[];autosize=1;strokeColor=none;fillColor=none;" parent="1" vertex="1">
          <mxGeometry x="-2029" y="1750" width="60" height="30" as="geometry" />
        </mxCell>
        <mxCell id="CjeFpHpgHZj_Uafyih__-20" value="count_B" style="text;html=1;align=center;verticalAlign=middle;resizable=0;points=[];autosize=1;strokeColor=none;fillColor=none;" parent="1" vertex="1">
          <mxGeometry x="-2039" y="1670" width="70" height="30" as="geometry" />
        </mxCell>
        <mxCell id="CjeFpHpgHZj_Uafyih__-21" value="" style="endArrow=classic;html=1;rounded=0;entryX=0.25;entryY=0.667;entryDx=0;entryDy=0;entryPerimeter=0;exitX=0.133;exitY=0;exitDx=0;exitDy=0;exitPerimeter=0;" parent="1" source="CjeFpHpgHZj_Uafyih__-1" target="CjeFpHpgHZj_Uafyih__-16" edge="1">
          <mxGeometry width="50" height="50" relative="1" as="geometry">
            <mxPoint x="-2219" y="1830" as="sourcePoint" />
            <mxPoint x="-2159" y="1700" as="targetPoint" />
            <Array as="points">
              <mxPoint x="-2209" y="1700" />
            </Array>
          </mxGeometry>
        </mxCell>
        <mxCell id="CjeFpHpgHZj_Uafyih__-22" value="" style="endArrow=classic;html=1;rounded=0;entryX=0.2;entryY=0.667;entryDx=0;entryDy=0;entryPerimeter=0;exitX=0.148;exitY=0;exitDx=0;exitDy=0;exitPerimeter=0;" parent="1" source="CjeFpHpgHZj_Uafyih__-1" target="CjeFpHpgHZj_Uafyih__-17" edge="1">
          <mxGeometry width="50" height="50" relative="1" as="geometry">
            <mxPoint x="-2179" y="1840" as="sourcePoint" />
            <mxPoint x="-2179" y="1720" as="targetPoint" />
            <Array as="points">
              <mxPoint x="-2189" y="1730" />
            </Array>
          </mxGeometry>
        </mxCell>
        <mxCell id="CjeFpHpgHZj_Uafyih__-23" value="" style="endArrow=classic;html=1;rounded=0;entryX=0.2;entryY=0.667;entryDx=0;entryDy=0;entryPerimeter=0;" parent="1" edge="1">
          <mxGeometry width="50" height="50" relative="1" as="geometry">
            <mxPoint x="-2169" y="1850" as="sourcePoint" />
            <mxPoint x="-2139" y="1760" as="targetPoint" />
            <Array as="points">
              <mxPoint x="-2169" y="1760" />
            </Array>
          </mxGeometry>
        </mxCell>
        <mxCell id="CjeFpHpgHZj_Uafyih__-24" value="res_B" style="text;html=1;align=center;verticalAlign=middle;resizable=0;points=[];autosize=1;strokeColor=none;fillColor=none;rotation=-90;" parent="1" vertex="1">
          <mxGeometry x="-2189" y="1855" width="50" height="30" as="geometry" />
        </mxCell>
        <mxCell id="CjeFpHpgHZj_Uafyih__-25" value="en_B" style="text;html=1;align=center;verticalAlign=middle;resizable=0;points=[];autosize=1;strokeColor=none;fillColor=none;rotation=-90;" parent="1" vertex="1">
          <mxGeometry x="-2219" y="1855" width="50" height="30" as="geometry" />
        </mxCell>
        <mxCell id="CjeFpHpgHZj_Uafyih__-26" style="edgeStyle=orthogonalEdgeStyle;rounded=0;orthogonalLoop=1;jettySize=auto;html=1;exitX=1;exitY=0.75;exitDx=0;exitDy=0;entryX=0.107;entryY=0;entryDx=0;entryDy=0;entryPerimeter=0;" parent="1" edge="1">
          <mxGeometry relative="1" as="geometry">
            <mxPoint x="-1909" y="1850" as="targetPoint" />
            <mxPoint x="-1979" y="1770" as="sourcePoint" />
          </mxGeometry>
        </mxCell>
        <mxCell id="CjeFpHpgHZj_Uafyih__-27" value="flag_B" style="text;html=1;align=center;verticalAlign=middle;resizable=0;points=[];autosize=1;strokeColor=none;fillColor=none;rotation=-90;" parent="1" vertex="1">
          <mxGeometry x="-1939" y="1860" width="60" height="30" as="geometry" />
        </mxCell>
        <mxCell id="CjeFpHpgHZj_Uafyih__-28" value="flag_A" style="text;html=1;align=center;verticalAlign=middle;resizable=0;points=[];autosize=1;strokeColor=none;fillColor=none;rotation=-90;" parent="1" vertex="1">
          <mxGeometry x="-2279" y="1860" width="60" height="30" as="geometry" />
        </mxCell>
        <mxCell id="CjeFpHpgHZj_Uafyih__-29" value="" style="shape=trapezoid;perimeter=trapezoidPerimeter;whiteSpace=wrap;html=1;fixedSize=1;rotation=90;labelBackgroundColor=none;" parent="1" vertex="1">
          <mxGeometry x="-2321.5" y="1502.5" width="145" height="60" as="geometry" />
        </mxCell>
        <mxCell id="CjeFpHpgHZj_Uafyih__-30" style="edgeStyle=orthogonalEdgeStyle;rounded=0;orthogonalLoop=1;jettySize=auto;html=1;exitX=1;exitY=0.5;exitDx=0;exitDy=0;labelBackgroundColor=none;fontColor=default;exitPerimeter=0;" parent="1" source="CjeFpHpgHZj_Uafyih__-59" edge="1">
          <mxGeometry relative="1" as="geometry">
            <mxPoint x="-2279" y="1480" as="targetPoint" />
            <Array as="points">
              <mxPoint x="-2409" y="1510" />
              <mxPoint x="-2409" y="1480" />
            </Array>
            <mxPoint x="-2619" y="1530" as="sourcePoint" />
          </mxGeometry>
        </mxCell>
        <mxCell id="CjeFpHpgHZj_Uafyih__-31" value="input(7..6)" style="edgeLabel;html=1;align=center;verticalAlign=middle;resizable=0;points=[];labelBackgroundColor=none;" parent="CjeFpHpgHZj_Uafyih__-30" vertex="1" connectable="0">
          <mxGeometry x="0.3309" y="-1" relative="1" as="geometry">
            <mxPoint x="51" y="-10" as="offset" />
          </mxGeometry>
        </mxCell>
        <mxCell id="CjeFpHpgHZj_Uafyih__-32" style="edgeStyle=orthogonalEdgeStyle;rounded=0;orthogonalLoop=1;jettySize=auto;html=1;exitX=1;exitY=0.5;exitDx=0;exitDy=0;entryX=0;entryY=0.833;entryDx=0;entryDy=0;entryPerimeter=0;labelBackgroundColor=none;fontColor=default;exitPerimeter=0;" parent="1" source="CjeFpHpgHZj_Uafyih__-59" target="CjeFpHpgHZj_Uafyih__-41" edge="1">
          <mxGeometry relative="1" as="geometry">
            <mxPoint x="-2289" y="1540" as="targetPoint" />
            <Array as="points">
              <mxPoint x="-2409" y="1510" />
              <mxPoint x="-2409" y="1540" />
            </Array>
            <mxPoint x="-2629" y="1525" as="sourcePoint" />
          </mxGeometry>
        </mxCell>
        <mxCell id="CjeFpHpgHZj_Uafyih__-33" value="input(3..2)" style="edgeLabel;html=1;align=center;verticalAlign=middle;resizable=0;points=[];labelBackgroundColor=none;" parent="CjeFpHpgHZj_Uafyih__-32" vertex="1" connectable="0">
          <mxGeometry x="0.5511" y="-1" relative="1" as="geometry">
            <mxPoint x="11" y="-11" as="offset" />
          </mxGeometry>
        </mxCell>
        <mxCell id="CjeFpHpgHZj_Uafyih__-34" style="edgeStyle=orthogonalEdgeStyle;rounded=0;orthogonalLoop=1;jettySize=auto;html=1;exitX=1;exitY=0.5;exitDx=0;exitDy=0;labelBackgroundColor=none;fontColor=default;entryX=0.345;entryY=1;entryDx=0;entryDy=0;entryPerimeter=0;exitPerimeter=0;" parent="1" source="CjeFpHpgHZj_Uafyih__-59" target="CjeFpHpgHZj_Uafyih__-29" edge="1">
          <mxGeometry relative="1" as="geometry">
            <mxPoint x="-2309" y="1510" as="targetPoint" />
            <Array as="points">
              <mxPoint x="-2409" y="1510" />
              <mxPoint x="-2409" y="1510" />
            </Array>
            <mxPoint x="-2629" y="1525" as="sourcePoint" />
          </mxGeometry>
        </mxCell>
        <mxCell id="CjeFpHpgHZj_Uafyih__-35" style="edgeStyle=orthogonalEdgeStyle;rounded=0;orthogonalLoop=1;jettySize=auto;html=1;exitX=1;exitY=0.5;exitDx=0;exitDy=0;labelBackgroundColor=none;fontColor=default;exitPerimeter=0;" parent="1" source="CjeFpHpgHZj_Uafyih__-59" edge="1">
          <mxGeometry relative="1" as="geometry">
            <mxPoint x="-2279" y="1570" as="targetPoint" />
            <Array as="points">
              <mxPoint x="-2409" y="1510" />
              <mxPoint x="-2409" y="1570" />
            </Array>
            <mxPoint x="-2629" y="1525" as="sourcePoint" />
          </mxGeometry>
        </mxCell>
        <mxCell id="CjeFpHpgHZj_Uafyih__-36" style="edgeStyle=orthogonalEdgeStyle;rounded=0;orthogonalLoop=1;jettySize=auto;html=1;exitX=1;exitY=0.5;exitDx=0;exitDy=0;entryX=1;entryY=0.75;entryDx=0;entryDy=0;labelBackgroundColor=none;fontColor=default;" parent="1" source="CjeFpHpgHZj_Uafyih__-41" target="CjeFpHpgHZj_Uafyih__-42" edge="1">
          <mxGeometry relative="1" as="geometry" />
        </mxCell>
        <mxCell id="CjeFpHpgHZj_Uafyih__-37" value="mux_o(1)" style="edgeLabel;html=1;align=center;verticalAlign=middle;resizable=0;points=[];labelBackgroundColor=none;rotation=-90;" parent="CjeFpHpgHZj_Uafyih__-36" vertex="1" connectable="0">
          <mxGeometry x="0.5804" y="2" relative="1" as="geometry">
            <mxPoint x="-4" y="-1" as="offset" />
          </mxGeometry>
        </mxCell>
        <mxCell id="CjeFpHpgHZj_Uafyih__-38" style="edgeStyle=orthogonalEdgeStyle;rounded=0;orthogonalLoop=1;jettySize=auto;html=1;exitX=1;exitY=0.5;exitDx=0;exitDy=0;entryX=1;entryY=0.25;entryDx=0;entryDy=0;labelBackgroundColor=none;fontColor=default;" parent="1" source="CjeFpHpgHZj_Uafyih__-41" target="CjeFpHpgHZj_Uafyih__-42" edge="1">
          <mxGeometry relative="1" as="geometry" />
        </mxCell>
        <mxCell id="CjeFpHpgHZj_Uafyih__-39" value="mux_o (2 bit)" style="edgeLabel;html=1;align=center;verticalAlign=middle;resizable=0;points=[];labelBackgroundColor=none;" parent="CjeFpHpgHZj_Uafyih__-38" vertex="1" connectable="0">
          <mxGeometry x="-0.789" y="-1" relative="1" as="geometry">
            <mxPoint x="16" y="-11" as="offset" />
          </mxGeometry>
        </mxCell>
        <mxCell id="CjeFpHpgHZj_Uafyih__-40" value="mux_o(0)" style="edgeLabel;html=1;align=center;verticalAlign=middle;resizable=0;points=[];labelBackgroundColor=none;rotation=-90;" parent="CjeFpHpgHZj_Uafyih__-38" vertex="1" connectable="0">
          <mxGeometry x="0.6801" y="1" relative="1" as="geometry">
            <mxPoint x="9" as="offset" />
          </mxGeometry>
        </mxCell>
        <mxCell id="CjeFpHpgHZj_Uafyih__-41" value="MUX 4:1" style="text;html=1;align=center;verticalAlign=middle;whiteSpace=wrap;rounded=0;labelBackgroundColor=none;" parent="1" vertex="1">
          <mxGeometry x="-2279" y="1515" width="60" height="30" as="geometry" />
        </mxCell>
        <mxCell id="CjeFpHpgHZj_Uafyih__-42" value="" style="shape=trapezoid;perimeter=trapezoidPerimeter;whiteSpace=wrap;html=1;fixedSize=1;rotation=90;labelBackgroundColor=none;" parent="1" vertex="1">
          <mxGeometry x="-2189" y="1350" width="120" height="60" as="geometry" />
        </mxCell>
        <mxCell id="CjeFpHpgHZj_Uafyih__-43" value="" style="rounded=0;whiteSpace=wrap;html=1;labelBackgroundColor=none;" parent="1" vertex="1">
          <mxGeometry x="-2539" y="1325" width="270" height="20" as="geometry" />
        </mxCell>
        <mxCell id="CjeFpHpgHZj_Uafyih__-44" value="&quot;00100000000000000000000000000000&quot; = 45*" style="text;html=1;align=center;verticalAlign=middle;whiteSpace=wrap;rounded=0;labelBackgroundColor=none;" parent="1" vertex="1">
          <mxGeometry x="-2544" y="1320" width="280" height="30" as="geometry" />
        </mxCell>
        <mxCell id="CjeFpHpgHZj_Uafyih__-45" style="edgeStyle=orthogonalEdgeStyle;rounded=0;orthogonalLoop=1;jettySize=auto;html=1;exitX=1;exitY=0.5;exitDx=0;exitDy=0;entryX=0.123;entryY=1;entryDx=0;entryDy=0;entryPerimeter=0;labelBackgroundColor=none;fontColor=default;" parent="1" source="CjeFpHpgHZj_Uafyih__-43" target="CjeFpHpgHZj_Uafyih__-42" edge="1">
          <mxGeometry relative="1" as="geometry" />
        </mxCell>
        <mxCell id="CjeFpHpgHZj_Uafyih__-46" style="edgeStyle=orthogonalEdgeStyle;rounded=0;orthogonalLoop=1;jettySize=auto;html=1;exitX=1;exitY=0.5;exitDx=0;exitDy=0;entryX=0.373;entryY=0.997;entryDx=0;entryDy=0;entryPerimeter=0;labelBackgroundColor=none;fontColor=default;" parent="1" target="CjeFpHpgHZj_Uafyih__-42" edge="1">
          <mxGeometry relative="1" as="geometry">
            <mxPoint x="-2269" y="1365" as="sourcePoint" />
          </mxGeometry>
        </mxCell>
        <mxCell id="CjeFpHpgHZj_Uafyih__-47" style="edgeStyle=orthogonalEdgeStyle;rounded=0;orthogonalLoop=1;jettySize=auto;html=1;exitX=1;exitY=0.5;exitDx=0;exitDy=0;entryX=0.631;entryY=0.998;entryDx=0;entryDy=0;entryPerimeter=0;labelBackgroundColor=none;fontColor=default;" parent="1" target="CjeFpHpgHZj_Uafyih__-42" edge="1">
          <mxGeometry relative="1" as="geometry">
            <mxPoint x="-2269" y="1395" as="sourcePoint" />
          </mxGeometry>
        </mxCell>
        <mxCell id="CjeFpHpgHZj_Uafyih__-48" style="edgeStyle=orthogonalEdgeStyle;rounded=0;orthogonalLoop=1;jettySize=auto;html=1;exitX=1;exitY=0.5;exitDx=0;exitDy=0;entryX=0.873;entryY=1;entryDx=0;entryDy=0;entryPerimeter=0;labelBackgroundColor=none;fontColor=default;" parent="1" target="CjeFpHpgHZj_Uafyih__-42" edge="1">
          <mxGeometry relative="1" as="geometry">
            <mxPoint x="-2269" y="1425" as="sourcePoint" />
          </mxGeometry>
        </mxCell>
        <mxCell id="CjeFpHpgHZj_Uafyih__-49" style="edgeStyle=orthogonalEdgeStyle;rounded=0;orthogonalLoop=1;jettySize=auto;html=1;entryX=0;entryY=0.5;entryDx=0;entryDy=0;" parent="1" source="CjeFpHpgHZj_Uafyih__-50" target="CjeFpHpgHZj_Uafyih__-61" edge="1">
          <mxGeometry relative="1" as="geometry">
            <Array as="points">
              <mxPoint x="-2059" y="1380" />
              <mxPoint x="-2059" y="1600" />
            </Array>
          </mxGeometry>
        </mxCell>
        <mxCell id="CjeFpHpgHZj_Uafyih__-50" value="MUX 4:1" style="text;html=1;align=center;verticalAlign=middle;whiteSpace=wrap;rounded=0;labelBackgroundColor=none;" parent="1" vertex="1">
          <mxGeometry x="-2159" y="1365" width="60" height="30" as="geometry" />
        </mxCell>
        <mxCell id="CjeFpHpgHZj_Uafyih__-51" value="" style="rounded=0;whiteSpace=wrap;html=1;labelBackgroundColor=none;" parent="1" vertex="1">
          <mxGeometry x="-2539" y="1355" width="270" height="20" as="geometry" />
        </mxCell>
        <mxCell id="CjeFpHpgHZj_Uafyih__-52" value="&quot;01100000000000000000000000000000&quot; = 135*" style="text;html=1;align=center;verticalAlign=middle;whiteSpace=wrap;rounded=0;labelBackgroundColor=none;" parent="1" vertex="1">
          <mxGeometry x="-2544" y="1350" width="280" height="30" as="geometry" />
        </mxCell>
        <mxCell id="CjeFpHpgHZj_Uafyih__-53" value="" style="rounded=0;whiteSpace=wrap;html=1;labelBackgroundColor=none;" parent="1" vertex="1">
          <mxGeometry x="-2539" y="1385" width="270" height="20" as="geometry" />
        </mxCell>
        <mxCell id="CjeFpHpgHZj_Uafyih__-54" value="&quot;10100000000000000000000000000000&quot; = 215*" style="text;html=1;align=center;verticalAlign=middle;whiteSpace=wrap;rounded=0;labelBackgroundColor=none;" parent="1" vertex="1">
          <mxGeometry x="-2544" y="1380" width="280" height="30" as="geometry" />
        </mxCell>
        <mxCell id="CjeFpHpgHZj_Uafyih__-55" value="" style="rounded=0;whiteSpace=wrap;html=1;labelBackgroundColor=none;" parent="1" vertex="1">
          <mxGeometry x="-2539" y="1415" width="270" height="20" as="geometry" />
        </mxCell>
        <mxCell id="CjeFpHpgHZj_Uafyih__-56" value="&quot;11100000000000000000000000000000&quot; = 315*" style="text;html=1;align=center;verticalAlign=middle;whiteSpace=wrap;rounded=0;labelBackgroundColor=none;" parent="1" vertex="1">
          <mxGeometry x="-2544" y="1410" width="280" height="30" as="geometry" />
        </mxCell>
        <mxCell id="CjeFpHpgHZj_Uafyih__-57" value="input(5..4)" style="edgeLabel;html=1;align=center;verticalAlign=middle;resizable=0;points=[];labelBackgroundColor=none;" parent="1" vertex="1" connectable="0">
          <mxGeometry x="-2349.0042938728884" y="1500" as="geometry" />
        </mxCell>
        <mxCell id="CjeFpHpgHZj_Uafyih__-58" value="input(1..0)" style="edgeLabel;html=1;align=center;verticalAlign=middle;resizable=0;points=[];labelBackgroundColor=none;" parent="1" vertex="1" connectable="0">
          <mxGeometry x="-2349.0042938728884" y="1560" as="geometry" />
        </mxCell>
        <mxCell id="CjeFpHpgHZj_Uafyih__-59" value="input (8 bit)" style="html=1;shadow=0;dashed=0;align=center;verticalAlign=middle;shape=mxgraph.arrows2.arrow;dy=0;dx=10;notch=0;labelBackgroundColor=none;" parent="1" vertex="1">
          <mxGeometry x="-2709" y="1500" width="100" height="20" as="geometry" />
        </mxCell>
        <mxCell id="CjeFpHpgHZj_Uafyih__-60" value="" style="endArrow=classic;html=1;rounded=0;entryX=1;entryY=0.25;entryDx=0;entryDy=0;" parent="1" target="CjeFpHpgHZj_Uafyih__-29" edge="1">
          <mxGeometry width="50" height="50" relative="1" as="geometry">
            <mxPoint x="-2269" y="1690" as="sourcePoint" />
            <mxPoint x="-2209" y="1630" as="targetPoint" />
            <Array as="points">
              <mxPoint x="-2237" y="1690" />
            </Array>
          </mxGeometry>
        </mxCell>
        <mxCell id="CjeFpHpgHZj_Uafyih__-61" value="+" style="ellipse;whiteSpace=wrap;html=1;aspect=fixed;" parent="1" vertex="1">
          <mxGeometry x="-1929" y="1570" width="60" height="60" as="geometry" />
        </mxCell>
        <mxCell id="CjeFpHpgHZj_Uafyih__-62" value="" style="endArrow=classic;html=1;rounded=0;entryX=0.5;entryY=1;entryDx=0;entryDy=0;" parent="1" target="CjeFpHpgHZj_Uafyih__-61" edge="1">
          <mxGeometry width="50" height="50" relative="1" as="geometry">
            <mxPoint x="-1979" y="1690" as="sourcePoint" />
            <mxPoint x="-1899" y="1630" as="targetPoint" />
            <Array as="points">
              <mxPoint x="-1899" y="1690" />
            </Array>
          </mxGeometry>
        </mxCell>
        <mxCell id="CjeFpHpgHZj_Uafyih__-63" value="PIPELINE&lt;br&gt;CORDIC" style="rounded=0;whiteSpace=wrap;html=1;" parent="1" vertex="1">
          <mxGeometry x="-1819" y="1460" width="210" height="280" as="geometry" />
        </mxCell>
        <mxCell id="CjeFpHpgHZj_Uafyih__-64" value="angle" style="text;html=1;align=center;verticalAlign=middle;whiteSpace=wrap;rounded=0;" parent="1" vertex="1">
          <mxGeometry x="-1829" y="1580" width="60" height="30" as="geometry" />
        </mxCell>
        <mxCell id="CjeFpHpgHZj_Uafyih__-65" value="clk" style="text;html=1;align=center;verticalAlign=middle;whiteSpace=wrap;rounded=0;" parent="1" vertex="1">
          <mxGeometry x="-1809" y="1710" width="60" height="30" as="geometry" />
        </mxCell>
        <mxCell id="CjeFpHpgHZj_Uafyih__-66" value="res_co" style="text;html=1;align=center;verticalAlign=middle;whiteSpace=wrap;rounded=0;" parent="1" vertex="1">
          <mxGeometry x="-1749" y="1710" width="60" height="30" as="geometry" />
        </mxCell>
        <mxCell id="CjeFpHpgHZj_Uafyih__-67" value="en_co" style="text;html=1;align=center;verticalAlign=middle;whiteSpace=wrap;rounded=0;" parent="1" vertex="1">
          <mxGeometry x="-1689" y="1710" width="60" height="30" as="geometry" />
        </mxCell>
        <mxCell id="CjeFpHpgHZj_Uafyih__-68" value="yout" style="text;html=1;align=center;verticalAlign=middle;resizable=0;points=[];autosize=1;strokeColor=none;fillColor=none;" parent="1" vertex="1">
          <mxGeometry x="-1649" y="1510" width="50" height="30" as="geometry" />
        </mxCell>
        <mxCell id="CjeFpHpgHZj_Uafyih__-69" style="edgeStyle=orthogonalEdgeStyle;rounded=0;orthogonalLoop=1;jettySize=auto;html=1;entryX=0.167;entryY=0.667;entryDx=0;entryDy=0;entryPerimeter=0;" parent="1" source="CjeFpHpgHZj_Uafyih__-61" target="CjeFpHpgHZj_Uafyih__-64" edge="1">
          <mxGeometry relative="1" as="geometry" />
        </mxCell>
        <mxCell id="CjeFpHpgHZj_Uafyih__-70" value="" style="endArrow=classic;html=1;rounded=0;exitX=0.536;exitY=0;exitDx=0;exitDy=0;exitPerimeter=0;entryX=0.5;entryY=1;entryDx=0;entryDy=0;" parent="1" target="CjeFpHpgHZj_Uafyih__-65" edge="1">
          <mxGeometry width="50" height="50" relative="1" as="geometry">
            <mxPoint x="-1778.6799999999998" y="1850" as="sourcePoint" />
            <mxPoint x="-1769" y="1760" as="targetPoint" />
          </mxGeometry>
        </mxCell>
        <mxCell id="CjeFpHpgHZj_Uafyih__-71" value="" style="endArrow=classic;html=1;rounded=0;exitX=0.536;exitY=0;exitDx=0;exitDy=0;exitPerimeter=0;entryX=0.5;entryY=1;entryDx=0;entryDy=0;" parent="1" edge="1">
          <mxGeometry width="50" height="50" relative="1" as="geometry">
            <mxPoint x="-1719" y="1850" as="sourcePoint" />
            <mxPoint x="-1719" y="1740" as="targetPoint" />
          </mxGeometry>
        </mxCell>
        <mxCell id="CjeFpHpgHZj_Uafyih__-72" value="" style="endArrow=classic;html=1;rounded=0;exitX=0.536;exitY=0;exitDx=0;exitDy=0;exitPerimeter=0;entryX=0.5;entryY=1;entryDx=0;entryDy=0;" parent="1" edge="1">
          <mxGeometry width="50" height="50" relative="1" as="geometry">
            <mxPoint x="-1659" y="1850" as="sourcePoint" />
            <mxPoint x="-1659" y="1740" as="targetPoint" />
          </mxGeometry>
        </mxCell>
        <mxCell id="CjeFpHpgHZj_Uafyih__-73" value="res_co" style="text;html=1;align=center;verticalAlign=middle;whiteSpace=wrap;rounded=0;rotation=-90;" parent="1" vertex="1">
          <mxGeometry x="-1749" y="1860" width="60" height="30" as="geometry" />
        </mxCell>
        <mxCell id="CjeFpHpgHZj_Uafyih__-74" value="en_co" style="text;html=1;align=center;verticalAlign=middle;whiteSpace=wrap;rounded=0;rotation=-90;" parent="1" vertex="1">
          <mxGeometry x="-1689" y="1860" width="60" height="30" as="geometry" />
        </mxCell>
        <mxCell id="CjeFpHpgHZj_Uafyih__-75" value="COMTER D&lt;br&gt;+1bit&lt;br&gt;= 360" style="rounded=0;whiteSpace=wrap;html=1;" parent="1" vertex="1">
          <mxGeometry x="-1419" y="1655" width="160" height="160" as="geometry" />
        </mxCell>
        <mxCell id="CjeFpHpgHZj_Uafyih__-76" value="clk" style="text;html=1;align=center;verticalAlign=middle;resizable=0;points=[];autosize=1;strokeColor=none;fillColor=none;" parent="1" vertex="1">
          <mxGeometry x="-1429" y="1685" width="40" height="30" as="geometry" />
        </mxCell>
        <mxCell id="CjeFpHpgHZj_Uafyih__-77" value="en_D" style="text;html=1;align=center;verticalAlign=middle;resizable=0;points=[];autosize=1;strokeColor=none;fillColor=none;" parent="1" vertex="1">
          <mxGeometry x="-1429" y="1715" width="50" height="30" as="geometry" />
        </mxCell>
        <mxCell id="CjeFpHpgHZj_Uafyih__-78" value="res_D" style="text;html=1;align=center;verticalAlign=middle;resizable=0;points=[];autosize=1;strokeColor=none;fillColor=none;" parent="1" vertex="1">
          <mxGeometry x="-1434" y="1745" width="60" height="30" as="geometry" />
        </mxCell>
        <mxCell id="CjeFpHpgHZj_Uafyih__-79" value="flag_D" style="text;html=1;align=center;verticalAlign=middle;resizable=0;points=[];autosize=1;strokeColor=none;fillColor=none;" parent="1" vertex="1">
          <mxGeometry x="-1309" y="1755" width="60" height="30" as="geometry" />
        </mxCell>
        <mxCell id="CjeFpHpgHZj_Uafyih__-80" value="count_D" style="text;html=1;align=center;verticalAlign=middle;resizable=0;points=[];autosize=1;strokeColor=none;fillColor=none;" parent="1" vertex="1">
          <mxGeometry x="-1319" y="1675" width="70" height="30" as="geometry" />
        </mxCell>
        <mxCell id="CjeFpHpgHZj_Uafyih__-81" value="REGISTER" style="rounded=0;whiteSpace=wrap;html=1;" parent="1" vertex="1">
          <mxGeometry x="-1119" y="1465" width="230" height="280" as="geometry" />
        </mxCell>
        <mxCell id="CjeFpHpgHZj_Uafyih__-82" value="clk" style="text;html=1;align=center;verticalAlign=middle;whiteSpace=wrap;rounded=0;" parent="1" vertex="1">
          <mxGeometry x="-1129" y="1715" width="60" height="30" as="geometry" />
        </mxCell>
        <mxCell id="CjeFpHpgHZj_Uafyih__-83" value="res_re" style="text;html=1;align=center;verticalAlign=middle;whiteSpace=wrap;rounded=0;" parent="1" vertex="1">
          <mxGeometry x="-1069" y="1715" width="60" height="30" as="geometry" />
        </mxCell>
        <mxCell id="CjeFpHpgHZj_Uafyih__-84" value="en_re" style="text;html=1;align=center;verticalAlign=middle;whiteSpace=wrap;rounded=0;" parent="1" vertex="1">
          <mxGeometry x="-999" y="1715" width="80" height="30" as="geometry" />
        </mxCell>
        <mxCell id="CjeFpHpgHZj_Uafyih__-85" value="data_in" style="text;html=1;align=center;verticalAlign=middle;resizable=0;points=[];autosize=1;strokeColor=none;fillColor=none;" parent="1" vertex="1">
          <mxGeometry x="-1129" y="1585" width="60" height="30" as="geometry" />
        </mxCell>
        <mxCell id="CjeFpHpgHZj_Uafyih__-86" value="write_addr" style="text;html=1;align=center;verticalAlign=middle;resizable=0;points=[];autosize=1;strokeColor=none;fillColor=none;" parent="1" vertex="1">
          <mxGeometry x="-1129" y="1625" width="80" height="30" as="geometry" />
        </mxCell>
        <mxCell id="CjeFpHpgHZj_Uafyih__-87" value="read_addr" style="text;html=1;align=center;verticalAlign=middle;resizable=0;points=[];autosize=1;strokeColor=none;fillColor=none;" parent="1" vertex="1">
          <mxGeometry x="-1129" y="1545" width="80" height="30" as="geometry" />
        </mxCell>
        <mxCell id="CjeFpHpgHZj_Uafyih__-88" value="data_out" style="text;html=1;align=center;verticalAlign=middle;resizable=0;points=[];autosize=1;strokeColor=none;fillColor=none;" parent="1" vertex="1">
          <mxGeometry x="-959" y="1585" width="70" height="30" as="geometry" />
        </mxCell>
        <mxCell id="CjeFpHpgHZj_Uafyih__-89" value="" style="endArrow=classic;html=1;rounded=0;entryX=0.25;entryY=0.667;entryDx=0;entryDy=0;entryPerimeter=0;exitX=0.141;exitY=0;exitDx=0;exitDy=0;exitPerimeter=0;" parent="1" edge="1">
          <mxGeometry width="50" height="50" relative="1" as="geometry">
            <mxPoint x="-1489" y="1855" as="sourcePoint" />
            <mxPoint x="-1419" y="1705" as="targetPoint" />
            <Array as="points">
              <mxPoint x="-1489" y="1705" />
            </Array>
          </mxGeometry>
        </mxCell>
        <mxCell id="CjeFpHpgHZj_Uafyih__-90" value="" style="endArrow=classic;html=1;rounded=0;entryX=0.2;entryY=0.667;entryDx=0;entryDy=0;entryPerimeter=0;exitX=0.156;exitY=0;exitDx=0;exitDy=0;exitPerimeter=0;" parent="1" edge="1">
          <mxGeometry width="50" height="50" relative="1" as="geometry">
            <mxPoint x="-1469" y="1855" as="sourcePoint" />
            <mxPoint x="-1419" y="1735" as="targetPoint" />
            <Array as="points">
              <mxPoint x="-1469" y="1735" />
            </Array>
          </mxGeometry>
        </mxCell>
        <mxCell id="CjeFpHpgHZj_Uafyih__-91" value="" style="endArrow=classic;html=1;rounded=0;entryX=0.2;entryY=0.667;entryDx=0;entryDy=0;entryPerimeter=0;exitX=0.172;exitY=0;exitDx=0;exitDy=0;exitPerimeter=0;" parent="1" edge="1">
          <mxGeometry width="50" height="50" relative="1" as="geometry">
            <mxPoint x="-1449" y="1855" as="sourcePoint" />
            <mxPoint x="-1419" y="1765" as="targetPoint" />
            <Array as="points">
              <mxPoint x="-1449" y="1765" />
            </Array>
          </mxGeometry>
        </mxCell>
        <mxCell id="CjeFpHpgHZj_Uafyih__-92" value="en_D" style="text;html=1;align=center;verticalAlign=middle;resizable=0;points=[];autosize=1;strokeColor=none;fillColor=none;rotation=-90;" parent="1" vertex="1">
          <mxGeometry x="-1499" y="1855" width="50" height="30" as="geometry" />
        </mxCell>
        <mxCell id="CjeFpHpgHZj_Uafyih__-93" value="res_D" style="text;html=1;align=center;verticalAlign=middle;resizable=0;points=[];autosize=1;strokeColor=none;fillColor=none;rotation=-90;" parent="1" vertex="1">
          <mxGeometry x="-1479" y="1855" width="60" height="30" as="geometry" />
        </mxCell>
        <mxCell id="CjeFpHpgHZj_Uafyih__-94" style="edgeStyle=orthogonalEdgeStyle;rounded=0;orthogonalLoop=1;jettySize=auto;html=1;exitX=1;exitY=0.75;exitDx=0;exitDy=0;entryX=0.107;entryY=0;entryDx=0;entryDy=0;entryPerimeter=0;" parent="1" edge="1">
          <mxGeometry relative="1" as="geometry">
            <mxPoint x="-1189" y="1855" as="targetPoint" />
            <mxPoint x="-1259" y="1775" as="sourcePoint" />
          </mxGeometry>
        </mxCell>
        <mxCell id="CjeFpHpgHZj_Uafyih__-95" value="flag_D" style="text;html=1;align=center;verticalAlign=middle;resizable=0;points=[];autosize=1;strokeColor=none;fillColor=none;rotation=-90;" parent="1" vertex="1">
          <mxGeometry x="-1219" y="1860" width="60" height="30" as="geometry" />
        </mxCell>
        <mxCell id="CjeFpHpgHZj_Uafyih__-96" style="edgeStyle=orthogonalEdgeStyle;rounded=0;orthogonalLoop=1;jettySize=auto;html=1;exitX=1;exitY=0.25;exitDx=0;exitDy=0;entryX=0;entryY=0.5;entryDx=0;entryDy=0;" parent="1" source="CjeFpHpgHZj_Uafyih__-63" target="CjeFpHpgHZj_Uafyih__-81" edge="1">
          <mxGeometry relative="1" as="geometry">
            <mxPoint x="-1539" y="1460" as="sourcePoint" />
            <mxPoint x="-1239" y="1530" as="targetPoint" />
            <Array as="points" />
          </mxGeometry>
        </mxCell>
        <mxCell id="CjeFpHpgHZj_Uafyih__-97" value="" style="endArrow=classic;html=1;rounded=0;exitX=0.857;exitY=0.667;exitDx=0;exitDy=0;exitPerimeter=0;" parent="1" source="CjeFpHpgHZj_Uafyih__-80" edge="1">
          <mxGeometry width="50" height="50" relative="1" as="geometry">
            <mxPoint x="-1239" y="1695" as="sourcePoint" />
            <mxPoint x="-1119" y="1645" as="targetPoint" />
            <Array as="points">
              <mxPoint x="-1189" y="1695" />
              <mxPoint x="-1189" y="1645" />
            </Array>
          </mxGeometry>
        </mxCell>
        <mxCell id="CjeFpHpgHZj_Uafyih__-98" value="" style="endArrow=classic;html=1;rounded=0;" parent="1" edge="1">
          <mxGeometry width="50" height="50" relative="1" as="geometry">
            <mxPoint x="-1149" y="1850" as="sourcePoint" />
            <mxPoint x="-1099" y="1745" as="targetPoint" />
            <Array as="points">
              <mxPoint x="-1149" y="1805" />
              <mxPoint x="-1099" y="1805" />
            </Array>
          </mxGeometry>
        </mxCell>
        <mxCell id="CjeFpHpgHZj_Uafyih__-99" value="" style="endArrow=classic;html=1;rounded=0;exitX=0.941;exitY=0.001;exitDx=0;exitDy=0;exitPerimeter=0;" parent="1" source="CjeFpHpgHZj_Uafyih__-1" edge="1">
          <mxGeometry width="50" height="50" relative="1" as="geometry">
            <mxPoint x="-1119" y="1840" as="sourcePoint" />
            <mxPoint x="-1039" y="1745" as="targetPoint" />
            <Array as="points">
              <mxPoint x="-1119" y="1815" />
              <mxPoint x="-1039" y="1815" />
            </Array>
          </mxGeometry>
        </mxCell>
        <mxCell id="CjeFpHpgHZj_Uafyih__-100" value="" style="endArrow=classic;html=1;rounded=0;" parent="1" edge="1">
          <mxGeometry width="50" height="50" relative="1" as="geometry">
            <mxPoint x="-1079" y="1850" as="sourcePoint" />
            <mxPoint x="-959" y="1745" as="targetPoint" />
            <Array as="points">
              <mxPoint x="-1079" y="1825" />
              <mxPoint x="-959" y="1825" />
            </Array>
          </mxGeometry>
        </mxCell>
        <mxCell id="CjeFpHpgHZj_Uafyih__-101" value="res_re" style="text;html=1;align=center;verticalAlign=middle;whiteSpace=wrap;rounded=0;rotation=-90;" parent="1" vertex="1">
          <mxGeometry x="-1149" y="1855" width="60" height="30" as="geometry" />
        </mxCell>
        <mxCell id="CjeFpHpgHZj_Uafyih__-102" value="en_re" style="text;html=1;align=center;verticalAlign=middle;whiteSpace=wrap;rounded=0;rotation=-90;" parent="1" vertex="1">
          <mxGeometry x="-1119" y="1855" width="80" height="30" as="geometry" />
        </mxCell>
        <mxCell id="CjeFpHpgHZj_Uafyih__-103" style="edgeStyle=orthogonalEdgeStyle;rounded=0;orthogonalLoop=1;jettySize=auto;html=1;exitX=1;exitY=0.75;exitDx=0;exitDy=0;entryX=0.899;entryY=0.989;entryDx=0;entryDy=0;entryPerimeter=0;" parent="1" source="CjeFpHpgHZj_Uafyih__-106" edge="1">
          <mxGeometry relative="1" as="geometry">
            <mxPoint x="-1168.2800000000007" y="1934.12" as="targetPoint" />
            <Array as="points">
              <mxPoint x="-499" y="1675" />
              <mxPoint x="-499" y="1985" />
              <mxPoint x="-1168" y="1985" />
            </Array>
          </mxGeometry>
        </mxCell>
        <mxCell id="CjeFpHpgHZj_Uafyih__-104" style="edgeStyle=orthogonalEdgeStyle;rounded=0;orthogonalLoop=1;jettySize=auto;html=1;exitX=1;exitY=0.25;exitDx=0;exitDy=0;entryX=0.867;entryY=0.989;entryDx=0;entryDy=0;entryPerimeter=0;" parent="1" source="CjeFpHpgHZj_Uafyih__-106" edge="1">
          <mxGeometry relative="1" as="geometry">
            <mxPoint x="-1209.2400000000007" y="1934.12" as="targetPoint" />
            <Array as="points">
              <mxPoint x="-309" y="1535" />
              <mxPoint x="-309" y="2015" />
              <mxPoint x="-1209" y="2015" />
            </Array>
          </mxGeometry>
        </mxCell>
        <mxCell id="CjeFpHpgHZj_Uafyih__-105" style="edgeStyle=orthogonalEdgeStyle;rounded=0;orthogonalLoop=1;jettySize=auto;html=1;" parent="1" source="CjeFpHpgHZj_Uafyih__-106" edge="1">
          <mxGeometry relative="1" as="geometry">
            <mxPoint x="-439" y="1605" as="targetPoint" />
          </mxGeometry>
        </mxCell>
        <mxCell id="CjeFpHpgHZj_Uafyih__-106" value="TX" style="rounded=0;whiteSpace=wrap;html=1;" parent="1" vertex="1">
          <mxGeometry x="-749" y="1465" width="230" height="280" as="geometry" />
        </mxCell>
        <mxCell id="CjeFpHpgHZj_Uafyih__-107" value="i_TX_Byte" style="text;html=1;align=center;verticalAlign=middle;resizable=0;points=[];autosize=1;strokeColor=none;fillColor=none;" parent="1" vertex="1">
          <mxGeometry x="-749" y="1585" width="80" height="30" as="geometry" />
        </mxCell>
        <mxCell id="CjeFpHpgHZj_Uafyih__-108" value="clk" style="text;html=1;align=center;verticalAlign=middle;resizable=0;points=[];autosize=1;strokeColor=none;fillColor=none;" parent="1" vertex="1">
          <mxGeometry x="-654" y="1725" width="40" height="30" as="geometry" />
        </mxCell>
        <mxCell id="CjeFpHpgHZj_Uafyih__-109" value="i_TX_DV" style="text;html=1;align=center;verticalAlign=middle;resizable=0;points=[];autosize=1;strokeColor=none;fillColor=none;" parent="1" vertex="1">
          <mxGeometry x="-749" y="1675" width="70" height="30" as="geometry" />
        </mxCell>
        <mxCell id="CjeFpHpgHZj_Uafyih__-110" value="o_TX_Done" style="text;html=1;align=center;verticalAlign=middle;resizable=0;points=[];autosize=1;strokeColor=none;fillColor=none;" parent="1" vertex="1">
          <mxGeometry x="-599" y="1515" width="90" height="30" as="geometry" />
        </mxCell>
        <mxCell id="CjeFpHpgHZj_Uafyih__-111" style="edgeStyle=orthogonalEdgeStyle;rounded=0;orthogonalLoop=1;jettySize=auto;html=1;exitX=1;exitY=0.25;exitDx=0;exitDy=0;entryX=0.859;entryY=0;entryDx=0;entryDy=0;entryPerimeter=0;" parent="1" source="CjeFpHpgHZj_Uafyih__-112" target="CjeFpHpgHZj_Uafyih__-1" edge="1">
          <mxGeometry relative="1" as="geometry">
            <Array as="points">
              <mxPoint x="-1229" y="1290" />
              <mxPoint x="-1229" y="1630" />
            </Array>
          </mxGeometry>
        </mxCell>
        <mxCell id="CjeFpHpgHZj_Uafyih__-112" value="COMTER E&lt;br&gt;+1bit&lt;br&gt;= 360" style="rounded=0;whiteSpace=wrap;html=1;" parent="1" vertex="1">
          <mxGeometry x="-1479" y="1250" width="160" height="160" as="geometry" />
        </mxCell>
        <mxCell id="CjeFpHpgHZj_Uafyih__-113" value="clk" style="text;html=1;align=center;verticalAlign=middle;resizable=0;points=[];autosize=1;strokeColor=none;fillColor=none;" parent="1" vertex="1">
          <mxGeometry x="-1489" y="1270" width="40" height="30" as="geometry" />
        </mxCell>
        <mxCell id="CjeFpHpgHZj_Uafyih__-114" value="en_E" style="text;html=1;align=center;verticalAlign=middle;resizable=0;points=[];autosize=1;strokeColor=none;fillColor=none;" parent="1" vertex="1">
          <mxGeometry x="-1489" y="1310" width="50" height="30" as="geometry" />
        </mxCell>
        <mxCell id="CjeFpHpgHZj_Uafyih__-115" value="res_E" style="text;html=1;align=center;verticalAlign=middle;resizable=0;points=[];autosize=1;strokeColor=none;fillColor=none;" parent="1" vertex="1">
          <mxGeometry x="-1489" y="1350" width="50" height="30" as="geometry" />
        </mxCell>
        <mxCell id="CjeFpHpgHZj_Uafyih__-116" value="flag_E" style="text;html=1;align=center;verticalAlign=middle;resizable=0;points=[];autosize=1;strokeColor=none;fillColor=none;" parent="1" vertex="1">
          <mxGeometry x="-1369" y="1270" width="60" height="30" as="geometry" />
        </mxCell>
        <mxCell id="CjeFpHpgHZj_Uafyih__-117" value="count_E" style="text;html=1;align=center;verticalAlign=middle;resizable=0;points=[];autosize=1;strokeColor=none;fillColor=none;" parent="1" vertex="1">
          <mxGeometry x="-1379" y="1350" width="70" height="30" as="geometry" />
        </mxCell>
        <mxCell id="CjeFpHpgHZj_Uafyih__-118" value="" style="endArrow=classic;html=1;rounded=0;exitX=1;exitY=0.5;exitDx=0;exitDy=0;entryX=0;entryY=0.5;entryDx=0;entryDy=0;" parent="1" source="CjeFpHpgHZj_Uafyih__-81" target="CjeFpHpgHZj_Uafyih__-106" edge="1">
          <mxGeometry width="50" height="50" relative="1" as="geometry">
            <mxPoint x="-709" y="1505" as="sourcePoint" />
            <mxPoint x="-659" y="1455" as="targetPoint" />
          </mxGeometry>
        </mxCell>
        <mxCell id="CjeFpHpgHZj_Uafyih__-119" style="edgeStyle=orthogonalEdgeStyle;rounded=0;orthogonalLoop=1;jettySize=auto;html=1;exitX=1;exitY=0.75;exitDx=0;exitDy=0;entryX=0.917;entryY=0.5;entryDx=0;entryDy=0;entryPerimeter=0;" parent="1" source="CjeFpHpgHZj_Uafyih__-63" target="CjeFpHpgHZj_Uafyih__-121" edge="1">
          <mxGeometry relative="1" as="geometry">
            <mxPoint x="-1589" y="1830" as="targetPoint" />
            <Array as="points">
              <mxPoint x="-1589" y="1670" />
            </Array>
          </mxGeometry>
        </mxCell>
        <mxCell id="CjeFpHpgHZj_Uafyih__-120" value="flag_co" style="text;html=1;align=center;verticalAlign=middle;resizable=0;points=[];autosize=1;strokeColor=none;fillColor=none;" parent="1" vertex="1">
          <mxGeometry x="-1659" y="1650" width="60" height="30" as="geometry" />
        </mxCell>
        <mxCell id="CjeFpHpgHZj_Uafyih__-121" value="flag_co" style="text;html=1;align=center;verticalAlign=middle;resizable=0;points=[];autosize=1;strokeColor=none;fillColor=none;rotation=-90;" parent="1" vertex="1">
          <mxGeometry x="-1619" y="1860" width="60" height="30" as="geometry" />
        </mxCell>
        <mxCell id="CjeFpHpgHZj_Uafyih__-122" value="" style="endArrow=classic;html=1;rounded=0;exitX=1;exitY=0.75;exitDx=0;exitDy=0;entryX=0;entryY=0.357;entryDx=0;entryDy=0;entryPerimeter=0;" parent="1" source="CjeFpHpgHZj_Uafyih__-112" target="CjeFpHpgHZj_Uafyih__-81" edge="1">
          <mxGeometry width="50" height="50" relative="1" as="geometry">
            <mxPoint x="-1279" y="1375" as="sourcePoint" />
            <mxPoint x="-1149" y="1685" as="targetPoint" />
            <Array as="points">
              <mxPoint x="-1189" y="1370" />
              <mxPoint x="-1189" y="1565" />
            </Array>
          </mxGeometry>
        </mxCell>
        <mxCell id="CjeFpHpgHZj_Uafyih__-123" style="edgeStyle=orthogonalEdgeStyle;rounded=0;orthogonalLoop=1;jettySize=auto;html=1;exitX=0.615;exitY=0;exitDx=0;exitDy=0;entryX=0;entryY=0.25;entryDx=0;entryDy=0;exitPerimeter=0;" parent="1" source="CjeFpHpgHZj_Uafyih__-1" target="CjeFpHpgHZj_Uafyih__-112" edge="1">
          <mxGeometry relative="1" as="geometry">
            <Array as="points">
              <mxPoint x="-1559" y="1290" />
            </Array>
          </mxGeometry>
        </mxCell>
        <mxCell id="CjeFpHpgHZj_Uafyih__-124" style="edgeStyle=orthogonalEdgeStyle;rounded=0;orthogonalLoop=1;jettySize=auto;html=1;entryX=0;entryY=0.5;entryDx=0;entryDy=0;exitX=0.63;exitY=0;exitDx=0;exitDy=0;exitPerimeter=0;" parent="1" source="CjeFpHpgHZj_Uafyih__-1" target="CjeFpHpgHZj_Uafyih__-112" edge="1">
          <mxGeometry relative="1" as="geometry">
            <Array as="points">
              <mxPoint x="-1538" y="1330" />
            </Array>
            <mxPoint x="-1539" y="1820.4444173177083" as="sourcePoint" />
          </mxGeometry>
        </mxCell>
        <mxCell id="CjeFpHpgHZj_Uafyih__-125" style="edgeStyle=orthogonalEdgeStyle;rounded=0;orthogonalLoop=1;jettySize=auto;html=1;entryX=0;entryY=0.75;entryDx=0;entryDy=0;exitX=0.644;exitY=0;exitDx=0;exitDy=0;exitPerimeter=0;" parent="1" source="CjeFpHpgHZj_Uafyih__-1" target="CjeFpHpgHZj_Uafyih__-112" edge="1">
          <mxGeometry relative="1" as="geometry">
            <Array as="points">
              <mxPoint x="-1520" y="1370" />
            </Array>
            <mxPoint x="-1519" y="1820" as="sourcePoint" />
          </mxGeometry>
        </mxCell>
        <mxCell id="CjeFpHpgHZj_Uafyih__-127" style="edgeStyle=orthogonalEdgeStyle;rounded=0;orthogonalLoop=1;jettySize=auto;html=1;exitX=1;exitY=0.5;exitDx=0;exitDy=0;" parent="1" edge="1">
          <mxGeometry relative="1" as="geometry">
            <mxPoint x="-1039" y="1895" as="sourcePoint" />
            <mxPoint x="-749" y="1695" as="targetPoint" />
            <Array as="points">
              <mxPoint x="-829" y="1895" />
              <mxPoint x="-829" y="1695" />
            </Array>
          </mxGeometry>
        </mxCell>
        <mxCell id="CjeFpHpgHZj_Uafyih__-129" value="en_E" style="text;html=1;align=center;verticalAlign=middle;resizable=0;points=[];autosize=1;strokeColor=none;fillColor=none;rotation=-90;" parent="1" vertex="1">
          <mxGeometry x="-1569" y="1855" width="50" height="30" as="geometry" />
        </mxCell>
        <mxCell id="CjeFpHpgHZj_Uafyih__-130" value="res_E" style="text;html=1;align=center;verticalAlign=middle;resizable=0;points=[];autosize=1;strokeColor=none;fillColor=none;rotation=-90;" parent="1" vertex="1">
          <mxGeometry x="-1549" y="1855" width="50" height="30" as="geometry" />
        </mxCell>
        <mxCell id="CjeFpHpgHZj_Uafyih__-131" value="o_TX_Serial" style="text;html=1;align=center;verticalAlign=middle;resizable=0;points=[];autosize=1;strokeColor=none;fillColor=none;" parent="1" vertex="1">
          <mxGeometry x="-599" y="1585" width="90" height="30" as="geometry" />
        </mxCell>
        <mxCell id="CjeFpHpgHZj_Uafyih__-132" value="o_TX_Active" style="text;html=1;align=center;verticalAlign=middle;resizable=0;points=[];autosize=1;strokeColor=none;fillColor=none;" parent="1" vertex="1">
          <mxGeometry x="-599" y="1655" width="90" height="30" as="geometry" />
        </mxCell>
        <mxCell id="CjeFpHpgHZj_Uafyih__-133" style="edgeStyle=orthogonalEdgeStyle;rounded=0;orthogonalLoop=1;jettySize=auto;html=1;exitX=0;exitY=0.75;exitDx=0;exitDy=0;" parent="1" source="CjeFpHpgHZj_Uafyih__-136" edge="1">
          <mxGeometry relative="1" as="geometry">
            <mxPoint x="-3199" y="1650" as="targetPoint" />
          </mxGeometry>
        </mxCell>
        <mxCell id="CjeFpHpgHZj_Uafyih__-134" style="edgeStyle=orthogonalEdgeStyle;rounded=0;orthogonalLoop=1;jettySize=auto;html=1;exitX=1;exitY=0.25;exitDx=0;exitDy=0;" parent="1" source="CjeFpHpgHZj_Uafyih__-136" edge="1">
          <mxGeometry relative="1" as="geometry">
            <mxPoint x="-2709" y="1510" as="targetPoint" />
          </mxGeometry>
        </mxCell>
        <mxCell id="CjeFpHpgHZj_Uafyih__-135" style="edgeStyle=orthogonalEdgeStyle;rounded=0;orthogonalLoop=1;jettySize=auto;html=1;exitX=1;exitY=0.75;exitDx=0;exitDy=0;entryX=0.03;entryY=1;entryDx=0;entryDy=0;entryPerimeter=0;" parent="1" source="CjeFpHpgHZj_Uafyih__-136" target="CjeFpHpgHZj_Uafyih__-1" edge="1">
          <mxGeometry relative="1" as="geometry">
            <mxPoint x="-2289" y="1960" as="targetPoint" />
            <Array as="points">
              <mxPoint x="-2659" y="1650" />
              <mxPoint x="-2659" y="1950" />
              <mxPoint x="-2348" y="1950" />
            </Array>
          </mxGeometry>
        </mxCell>
        <mxCell id="CjeFpHpgHZj_Uafyih__-136" value="RX" style="rounded=0;whiteSpace=wrap;html=1;" parent="1" vertex="1">
          <mxGeometry x="-3029" y="1440" width="230" height="280" as="geometry" />
        </mxCell>
        <mxCell id="CjeFpHpgHZj_Uafyih__-137" value="i_RX_Serial" style="text;html=1;align=center;verticalAlign=middle;whiteSpace=wrap;rounded=0;" parent="1" vertex="1">
          <mxGeometry x="-3029" y="1630" width="70" height="30" as="geometry" />
        </mxCell>
        <mxCell id="CjeFpHpgHZj_Uafyih__-138" value="clk" style="text;html=1;align=center;verticalAlign=middle;whiteSpace=wrap;rounded=0;" parent="1" vertex="1">
          <mxGeometry x="-3049" y="1490" width="60" height="30" as="geometry" />
        </mxCell>
        <mxCell id="CjeFpHpgHZj_Uafyih__-139" value="o_RX_DV" style="text;html=1;align=center;verticalAlign=middle;resizable=0;points=[];autosize=1;strokeColor=none;fillColor=none;" parent="1" vertex="1">
          <mxGeometry x="-2869" y="1630" width="80" height="30" as="geometry" />
        </mxCell>
        <mxCell id="CjeFpHpgHZj_Uafyih__-140" value="o_RX_Byte" style="text;html=1;align=center;verticalAlign=middle;resizable=0;points=[];autosize=1;strokeColor=none;fillColor=none;" parent="1" vertex="1">
          <mxGeometry x="-2869" y="1490" width="80" height="30" as="geometry" />
        </mxCell>
        <mxCell id="CjeFpHpgHZj_Uafyih__-141" value="" style="endArrow=classic;html=1;rounded=0;entryX=0.5;entryY=1;entryDx=0;entryDy=0;labelBackgroundColor=none;fontColor=default;" parent="1" edge="1">
          <mxGeometry width="50" height="50" relative="1" as="geometry">
            <mxPoint x="-1749" y="1980" as="sourcePoint" />
            <mxPoint x="-1749" y="1930" as="targetPoint" />
          </mxGeometry>
        </mxCell>
        <mxCell id="CjeFpHpgHZj_Uafyih__-142" value="" style="endArrow=classic;html=1;rounded=0;labelBackgroundColor=none;fontColor=default;" parent="1" edge="1">
          <mxGeometry width="50" height="50" relative="1" as="geometry">
            <mxPoint x="-1704" y="1980" as="sourcePoint" />
            <mxPoint x="-1704" y="1930" as="targetPoint" />
          </mxGeometry>
        </mxCell>
        <mxCell id="CjeFpHpgHZj_Uafyih__-143" value="" style="endArrow=classic;html=1;rounded=0;labelBackgroundColor=none;fontColor=default;" parent="1" edge="1">
          <mxGeometry width="50" height="50" relative="1" as="geometry">
            <mxPoint x="-1794" y="1980" as="sourcePoint" />
            <mxPoint x="-1794" y="1930" as="targetPoint" />
          </mxGeometry>
        </mxCell>
        <mxCell id="CjeFpHpgHZj_Uafyih__-144" value="FPGA_START_BTTN" style="text;html=1;align=center;verticalAlign=middle;resizable=0;points=[];autosize=1;strokeColor=none;fillColor=none;labelBackgroundColor=none;rotation=-90;" parent="1" vertex="1">
          <mxGeometry x="-1869" y="2030" width="140" height="30" as="geometry" />
        </mxCell>
        <mxCell id="CjeFpHpgHZj_Uafyih__-145" value="FPGA_RESET_BTTN" style="text;html=1;align=center;verticalAlign=middle;resizable=0;points=[];autosize=1;strokeColor=none;fillColor=none;labelBackgroundColor=none;rotation=-90;" parent="1" vertex="1">
          <mxGeometry x="-1819" y="2030" width="140" height="30" as="geometry" />
        </mxCell>
        <mxCell id="CjeFpHpgHZj_Uafyih__-146" value="FPGA_CLK" style="text;html=1;align=center;verticalAlign=middle;resizable=0;points=[];autosize=1;strokeColor=none;fillColor=none;labelBackgroundColor=none;rotation=-90;" parent="1" vertex="1">
          <mxGeometry x="-1749" y="2000" width="90" height="30" as="geometry" />
        </mxCell>
        <mxCell id="CjeFpHpgHZj_Uafyih__-147" value="i_TX_DV" style="text;html=1;align=center;verticalAlign=middle;resizable=0;points=[];autosize=1;strokeColor=none;fillColor=none;" parent="1" vertex="1">
          <mxGeometry x="-1109" y="1880" width="70" height="30" as="geometry" />
        </mxCell>
        <mxCell id="CjeFpHpgHZj_Uafyih__-148" value="flag_E" style="text;html=1;align=center;verticalAlign=middle;resizable=0;points=[];autosize=1;strokeColor=none;fillColor=none;rotation=-90;" parent="1" vertex="1">
          <mxGeometry x="-1269" y="1860" width="60" height="30" as="geometry" />
        </mxCell>
        <mxCell id="CjeFpHpgHZj_Uafyih__-149" value="" style="endArrow=classic;html=1;rounded=0;entryX=0;entryY=0.25;entryDx=0;entryDy=0;" parent="1" target="CjeFpHpgHZj_Uafyih__-136" edge="1">
          <mxGeometry width="50" height="50" relative="1" as="geometry">
            <mxPoint x="-3189" y="1510" as="sourcePoint" />
            <mxPoint x="-2869" y="1440" as="targetPoint" />
          </mxGeometry>
        </mxCell>
        <mxCell id="CjeFpHpgHZj_Uafyih__-150" value="o_RX_DV" style="text;html=1;align=center;verticalAlign=middle;resizable=0;points=[];autosize=1;strokeColor=none;fillColor=none;" parent="1" vertex="1">
          <mxGeometry x="-2389" y="1910" width="80" height="30" as="geometry" />
        </mxCell>
        <mxCell id="CjeFpHpgHZj_Uafyih__-151" value="o_TX_Done" style="text;html=1;align=center;verticalAlign=middle;resizable=0;points=[];autosize=1;strokeColor=none;fillColor=none;rotation=-90;" parent="1" vertex="1">
          <mxGeometry x="-1259" y="1885" width="90" height="30" as="geometry" />
        </mxCell>
        <mxCell id="CjeFpHpgHZj_Uafyih__-152" value="o_TX_Active" style="text;html=1;align=center;verticalAlign=middle;resizable=0;points=[];autosize=1;strokeColor=none;fillColor=none;rotation=-90;" parent="1" vertex="1">
          <mxGeometry x="-1209" y="1885" width="90" height="30" as="geometry" />
        </mxCell>
      </root>
    </mxGraphModel>
  </diagram>
</mxfile>
